<svg width="32" height="32" viewBox="0 0 32 32" fill="none" xmlns="http://www.w3.org/2000/svg">
  <rect width="32" height="32" rx="7" fill="url(#gradient)"/>
  
  <!-- BN Monogram Design -->
  <g transform="translate(5, 6)">
    <!-- B Letter -->
    <path d="M0 0V10H1.8C3.2 10 4.2 9 4.2 7.5C4.2 6 3.2 5 1.8 5H0V0ZM0.5 1V4H1.8C2.2 4 2.5 4.3 2.5 4.75C2.5 5.2 2.2 5.5 1.8 5.5H0.5V7H1.8C2.2 7 2.5 7.3 2.5 7.75C2.5 8.2 2.2 8.5 1.8 8.5H0.5V10" 
          stroke="white" 
          stroke-width="1.5" 
          stroke-linecap="round" 
          stroke-linejoin="round" 
          fill="none"/>
    
    <!-- N Nest Icon -->
    <g transform="translate(7, 2)">
      <!-- Nest shape -->
      <path d="M6 0L12 6L6 12L0 6L6 0Z" 
            fill="white" 
            opacity="0.9"/>
      <path d="M6 2L10 6L6 10L2 6L6 2Z" 
            fill="url(#nestGradient)"/>
      <!-- Center dot -->
      <circle cx="6" cy="6" r="1" fill="white"/>
    </g>
  </g>
  
  <defs>
    <linearGradient id="gradient" x1="0" y1="0" x2="32" y2="32" gradientUnits="userSpaceOnUse">
      <stop stop-color="#0EA5E9"/>
      <stop offset="1" stop-color="#6366F1"/>
    </linearGradient>
    <linearGradient id="nestGradient" x1="2" y1="2" x2="10" y2="10" gradientUnits="userSpaceOnUse">
      <stop stop-color="#0EA5E9" stop-opacity="0.3"/>
      <stop offset="1" stop-color="#6366F1" stop-opacity="0.3"/>
    </linearGradient>
  </defs>
</svg>
